---
# Front matter comment to ensure Jekyll properly reads file.
---

<svg viewBox="0 0 473 514" xmlns="http://www.w3.org/2000/svg">
  <g fill="none" fill-rule="evenodd">
    <g fill="#0D348D" id="dark-blue">
      <path d="M104 203l4-2 4 5-2 2v3l3 3v3l-2 3v4l-3 1h-2l-1-11-4-8zm-27 2l-7 4-8-8 4 3 3-2-4-5 14-15 4 7 7 4-11 6 2 2-3 3zm96 4l-11-8 15-18 1 10-2 3 3 3v3l-2 3-1 12-3-7z"/>
      <path d="M172 190l-3 3h-5l-6-2v-4l2-2 1-7 3 2 9-10 5 4v9l-5 5zm39 17l1-8 5 1-2 15-2 3h-2v-8zm82-16l-7 10-6-7 4-4 4-8 3 2-2 2 5 4zm84-12l-14 7-5-8 4-3 2-5 6 1 5-2 4 3zM344 42l8-8 3-1 11 9-2 2 3 1-2 3 2 2-6 6-2 5-6-2-15-11zM82 165l9 7v8l7 8-8 5-6-3-5-8-4-4-5-2-5-6 13-7z"/>
      <path d="M81 112l2 1 3-2-2 3h3v2l3 2 4-2-2 4 3 3-10 1 1 1-2 2 5 7 4-3 2 1-9 8 3 6-1 1 3 4 1-2 1 5 2 1 3-3-2 4-5 1v4l5 5 1 3 5 2v6l3 6h2l3-4v4l-2 2 1 4 3 2 1-4 4 5 2-1 1 6 3 3 4 2 2-1 1 2 3-1 5 6-2 2h-4l-5 5 1 1-5 3v2h-2l-7 11-4 2-1-1-2 2-1 4 1-8 5-3-1-8 2-6-4-6 3-2-3-5h-4l-2-8-11-11-1-11-9-6-10-4 3-3-1-2 3-2-3-5 2-1 4 4 2-2-3-6h2v-4l-3-2 3-3-5-2v-3l-2-2h-5l6-3 1-2-2-3h-4l-1-2 10-6-2-5-8-3 4-5 8 9v3zm99 47l-6-4 11-15 6 11-9 9zm116 75l-5 6-8-7 8-12 2 1 9-8 6 7-8 5 1 1-4 6zm81-89l-1-3 13-17 9 6-3 4 1 17-2 2h-6l-10-9zm-164 3l11 8-1 8-15-3 1-10 3-5 1 1zm32 32l-3 6 1 7-4 7-8-2-4 3 4-24zm-50 24l-3 15-1-4-6-9 5-12 5 1zm137 28l-12 6-6-9 11-8 6 9zm20-16l-3 5-7 4-8-13 5-3-5-8 6-3 11 17zm67-22l-10 12-20 17-13-19 6-5-6-2 1-5 7-5h3l3 3 4-2 20-15 12 14zm-52 12l-6 5-12-18 11-6 3 9 5 6-3 2zm23-152l10-10 3 8 4-1 6 6-27 24-9-9-4-1 15-14zm36 64l4 2v2l-2 2-9 1-5 11-4 2 1 3-13-10 7-6v-4l7-10 5-4 8 10zM74 337l-11-1 3-9 11 2-2 9zm140 0l-18-11-1-7 17 3 1 8 8-5 4 9-7 6zm-23-24h-4l2-11 7 1 1 3-1 8-4-1zm-56-15l-1-4 2-1 22 4-1 4-3 1-18-3zm20-68l16-5 1-4 4-4 8 14-4 4-18 11-10-14 2-1zm33 143l11 2-1 5-10-2-2-2v-2zm-33 11v2l-10-2 1-5h10zm42 1l-2 8-11-2 1-10 11 4zm-33 3l12 2-14 14zm-11 9l-1 1-9-2 2-12 9 2 1 2-2 8zm5 92h-22l-10 6-1-19-2-6 1-3-2-2 2-11-2-3 3-3 1 6 3 5h8l16-4h5l28.5-1 26.5 9-5 10-7 8-2.5 3-23.5 3-10 2zM50 472l-15 21-4 3-5 1-4-10 5-2-4-3 3-3-4-2 2-3h3v-6l8-6-1-3 2-4h2l18 13zm-8-28l-2-2 4-5-2-4 7-7-1-9 6 9 4 19-10 3-7 9-5-4 6-8z"/>
      <path d="M68 426l5 5-8 10-6 4-5-19-2-2 8-8zM49 326l-5 1v-6l-7-2v-8l11-1 1 14zm49-20l1 7-8 2 1 4-11 1-2-3h-4l-2-13 5 1 5-7 14 7zm32-59l-2 2 1 1h-2l-19-10-1 1v-6l1-1 7 4 13-14 15 16-12 7zm89 26l-13-8 1-2 19 3-2 11-1 1-2-3zm-33-36l2 5v6h-10l2-12 4-4 1 3zm57 69l-6-8 9-8 3 5-2 4 3 3zm-99 15l-3-3 12 2v4h-7zm58 33l-1 7-15-2 2-14 14 2v6zm-71 57l-7 2 3-4v-4l-10-14 1-3h8l2 1v5l10 1-2 15zm29 0l10 1-1 10-10-2zM59 365l-10 5-7-10 1-8 3-1 15 3-2 10zm15-28l13 2-2 12-15-2 3-12zm52 4v4l-12-1v-8l11-2z"/>
      <path d="M75 363l3 4-10 9-10-11 14-4 2 1zm32-5h2l-2 6 2 3v4l-3 3-2-1 2-1-6-7 2-1-4-5 7-1zm38-22l-4-5 1-1h9l22 4-1 9-24-4v6zm6-85l10-5 2 1 4 8-5 1-1 5-7-1-8 7-11-1 2-5 11-8zm54 6l3-1-4 22-10-2-1-2 2-7-2-4zm-37 111l-5 1-10-2 1-5 3-1 10 2 1 4zm44 30l8 29v13l-7 23-30-5-28-2v-2l5 1 7-2 3-19v-2l-3-1h5l19 5 4-17v-2l-2-1 2-21 7 2zm-33-110l-5-1 2-14 7 1-2 15-1-1z"/>
      <path d="M72 360l-4 3-9 2 2-8 10 1zm111 31l-2 14-5-1 2-12 3-2zm-84-39v2l-13-2-1-5 9 2 4-2 2 1zm140-123l-5 9 11 2-2 13-1 3-3 1v2l-12-2 1-4h-16l-4 3 5-31 8 2 11-2 6 1-1 3zm-106 72l1-3 13 3-1 11-2 2-7-1-5-8 1-3z"/>
    </g>
  </g>
</svg>
