---
# Front matter comment to ensure Jekyll properly reads file.
---

<svg viewBox="0 0 473 514" xmlns="http://www.w3.org/2000/svg">
  <g fill="none" fill-rule="evenodd">
    <g fill="#0D348D" id="dark-blue">
      <path d="M104 203l4-2 4 5-2 2v3l3 3v3l-2 3v4l-3 1h-2l-1-11-4-8zm-27 2l-7 4-8-8 4 3 3-2-4-5 14-15 4 7 7 4-11 6 2 2-3 3zm96 4l-11-8 15-18 1 10-2 3 3 3v3l-2 3-1 12-3-7z"/>
      <path d="M172 190l-3 3h-5l-6-2v-4l2-2 1-7 3 2 9-10 5 4v9l-5 5zm39 17l1-8 5 1-2 15-2 3h-2v-8zm82-16l-7 10-6-7 4-4 4-8 3 2-2 2 5 4zm84-12l-14 7-5-8 4-3 2-5 6 1 5-2 4 3zM344 42l8-8 3-1 11 9-2 2 3 1-2 3 2 2-6 6-2 5-6-2-15-11zM82 165l9 7v8l7 8-8 5-6-3-5-8-4-4-5-2-5-6 13-7z"/>
      <path d="M81 112l2 1 3-2-2 3h3v2l3 2 4-2-2 4 3 3-10 1 1 1-2 2 5 7 4-3 2 1-9 8 3 6-1 1 3 4 1-2 1 5 2 1 3-3-2 4-5 1v4l5 5 1 3 5 2v6l3 6h2l3-4v4l-2 2 1 4 3 2 1-4 4 5 2-1 1 6 3 3 4 2 2-1 1 2 3-1 5 6-2 2h-4l-5 5 1 1-5 3v2h-2l-7 11-4 2-1-1-2 2-1 4 1-8 5-3-1-8 2-6-4-6 3-2-3-5h-4l-2-8-11-11-1-11-9-6-10-4 3-3-1-2 3-2-3-5 2-1 4 4 2-2-3-6h2v-4l-3-2 3-3-5-2v-3l-2-2h-5l6-3 1-2-2-3h-4l-1-2 10-6-2-5-8-3 4-5 8 9v3zm99 47l-6-4 11-15 6 11-9 9zm116 75l-5 6-8-7 8-12 2 1 9-8 6 7-8 5 1 1-4 6zm81-89l-1-3 13-17 9 6-3 4 1 17-2 2h-6l-10-9zm-164 3l11 8-1 8-15-3 1-10 3-5 1 1zm32 32l-3 6 1 7-4 7-8-2-4 3 4-24zm-50 24l-3 15-1-4-6-9 5-12 5 1zm137 28l-12 6-6-9 11-8 6 9zm20-16l-3 5-7 4-8-13 5-3-5-8 6-3 11 17zm67-22l-10 12-20 17-13-19 6-5-6-2 1-5 7-5h3l3 3 4-2 20-15 12 14zm-52 12l-6 5-12-18 11-6 3 9 5 6-3 2zm23-152l10-10 3 8 4-1 6 6-27 24-9-9-4-1 15-14zm36 64l4 2v2l-2 2-9 1-5 11-4 2 1 3-13-10 7-6v-4l7-10 5-4 8 10zM74 337l-11-1 3-9 11 2-2 9zm140 0l-18-11-1-7 17 3 1 8 8-5 4 9-7 6zm-23-24h-4l2-11 7 1 1 3-1 8-4-1zm-56-15l-1-4 2-1 22 4-1 4-3 1-18-3zm20-68l16-5 1-4 4-4 8 14-4 4-18 11-10-14 2-1zm33 143l11 2-1 5-10-2-2-2v-2zm-33 11v2l-10-2 1-5h10zm42 1l-2 8-11-2 1-10 11 4zm-33 3l12 2-14 14zm-11 9l-1 1-9-2 2-12 9 2 1 2-2 8zm5 92h-22l-10 6-1-19-2-6 1-3-2-2 2-11-2-3 3-3 1 6 3 5h8l16-4h5l28.5-1 26.5 9-5 10-7 8-2.5 3-23.5 3-10 2zM50 472l-15 21-4 3-5 1-4-10 5-2-4-3 3-3-4-2 2-3h3v-6l8-6-1-3 2-4h2l18 13zm-8-28l-2-2 4-5-2-4 7-7-1-9 6 9 4 19-10 3-7 9-5-4 6-8z"/>
      <path d="M68 426l5 5-8 10-6 4-5-19-2-2 8-8zM49 326l-5 1v-6l-7-2v-8l11-1 1 14zm49-20l1 7-8 2 1 4-11 1-2-3h-4l-2-13 5 1 5-7 14 7zm32-59l-2 2 1 1h-2l-19-10-1 1v-6l1-1 7 4 13-14 15 16-12 7zm89 26l-13-8 1-2 19 3-2 11-1 1-2-3zm-33-36l2 5v6h-10l2-12 4-4 1 3zm57 69l-6-8 9-8 3 5-2 4 3 3zm-99 15l-3-3 12 2v4h-7zm58 33l-1 7-15-2 2-14 14 2v6zm-71 57l-7 2 3-4v-4l-10-14 1-3h8l2 1v5l10 1-2 15zm29 0l10 1-1 10-10-2zM59 365l-10 5-7-10 1-8 3-1 15 3-2 10zm15-28l13 2-2 12-15-2 3-12zm52 4v4l-12-1v-8l11-2z"/>
      <path d="M75 363l3 4-10 9-10-11 14-4 2 1zm32-5h2l-2 6 2 3v4l-3 3-2-1 2-1-6-7 2-1-4-5 7-1zm38-22l-4-5 1-1h9l22 4-1 9-24-4v6zm6-85l10-5 2 1 4 8-5 1-1 5-7-1-8 7-11-1 2-5 11-8zm54 6l3-1-4 22-10-2-1-2 2-7-2-4zm-37 111l-5 1-10-2 1-5 3-1 10 2 1 4zm44 30l8 29v13l-7 23-30-5-28-2v-2l5 1 7-2 3-19v-2l-3-1h5l19 5 4-17v-2l-2-1 2-21 7 2zm-33-110l-5-1 2-14 7 1-2 15-1-1z"/>
      <path d="M72 360l-4 3-9 2 2-8 10 1zm111 31l-2 14-5-1 2-12 3-2zm-84-39v2l-13-2-1-5 9 2 4-2 2 1zm140-123l-5 9 11 2-2 13-1 3-3 1v2l-12-2 1-4h-16l-4 3 5-31 8 2 11-2 6 1-1 3zm-106 72l1-3 13 3-1 11-2 2-7-1-5-8 1-3z"/>
    </g>
    <g fill="#2261AE" id="blue">
      <path d="M158 302l-1-5 9 1v6l-7-1zm12-15l11 2-2 11-9-1-3-2 2-10zm40-47l-7-2-1-3 2-11 5 1v-2h2v2h2l-2 12zm-4 16l-13 7v-17l15 2 1 3-2 5z"/>
      <path d="M191 229l3-3v17l-2 13-8-24 5-3zM64 412l-12 11-2-2v-5l15-14 5 5-5 4zm-4-92v3l-11-2-1-11 12-2 3 11zm59 1l8 2 2 2-5-2 1 11-10 1-2-5-1-12zm0-10l-1 5-7 2-12-4-2-9 15 7zm111 1l-4 4-13 6v-8l5-11zm-25-24h-7l-5-6v-5l5-1 8 2-1 9zm-16 2l-7-1-1-3 2-11 2-1v6l5 10zm-46-76l-11 5-17 19-7-4 6-2 8-12 1 1v-2l5-3-1-1 5-5 6-1zm-54 7l-7-4 2-1v-2h3l14-8 5 11-2 4-4 2h-5l3 4-2 2zm85-9l2 4-4 4-1 4-9-7 7-8v-2h2l3 4zm-23-21l-1-3 2-4 8-9 1 6-3 6v4l10 2-6 7-4-2-6-7zm27-19v2l-9-7 8-11 2 2zm-38-3l-4-12 5-7 11 9-11 12v-2zm116 37l-12 4 3-3v-10l-4-4-1-7 5-8v-4l2 1-2 7h4l14 12zm14-73l-2-2 9-11 15 11-2 2 5 3v2l-7 2-4 3-11-8zm41-16l-1 3v-2l-21-15 5-3 3-4 4-1-1 1 9 5 9 1-9 7 3 6z"/>
      <path d="M48 416v-6l5-8-1-7 1-1 11 3 1 1-2 2 2 2-16 15zM441 59l-8 6 2 3-7 5-21-22-4 1-3-8 13-12 5 5 9-10h4l3 2-1 5 7 1 4-2 4 2 4 5 7-3 2 2h-6l-5 5 2 2-6 7zm-70 79l5 4-4 6v5l2 4-2 4 3 2-3 3-10-1-1-2-4 2-2-6 3-5 8 1 2-6-1-15 4 3zM189 369l2-10 7 1 3 2-2 13-10-2v-3zm-87-111l8-1 6-3-5 8h-3l-2 4-4-1-11 8-4-17 10-7-2 11 6-2zm121-70l-2 12h-4l4-24 3 1v10zm-10 76l-6-1 1-6 19 4-1 5zM55 504l-10-7-5 1 5-4.5 7-3.5 3-10 3-11 9-1.5 3 4.5 5 6.5 8 4.5 2 3 11-3 3 1 1 5-4 7 1 1-3 3v-2l-9 1-18-3-9 9zm102-177v4h-3l-7-7 11 1-1 1zm116-80v4l8 6v6l2 2h-2l-14 10 2 3-14 9-6-9 6-6 11-7-5-5h-4l15-12zm104-49l5 1-6 5 13 19-2 2-11 5-18 3-7 3-13 8-6 6-3 6-9-6-10 2-3-9 20-8 20-13zM149 339l23 4-1 6-17-3-5 1-1-8zm-13 56l-5-1 2-12 12 2-1 11h-7zm13 24l1-5 4 1 1-3 5 1-3 16-7-1-1-7zm44-3l-11-2 1-8 10 1z"/>
      <path d="M80 275l-1-11-2-3 10-6 4 18-4 8-7 5v-10zm114-2l-1 3-10-2 1-7 8-4 2 1 1 3-1 3zm46 21l-3 4-7-11 7-2 12-8 5 8-14 10zm-86-84l-1 1 2 1-6 8-12-14 3-1 4-5h2l9 8zm13-61l-4-3 4-6-3-1 3-5 3 2 2-2 2 1 8 7v2l-8 10zm25 16l-9-4v-3l10-7 7 1 1 2-2 11h-5zm108 79l-6 2v-2l-3-3 9-12 1-4 2 2 4 14-4 2zm-20-57l-1-8 4-12 10 8-5 6-4 9-4 4-1-6zM460 39l2 2v4l-1 9-3 3 4 2-1 3h2l2 4-1 11-14 2-5-1-3 2-1-5-8-10 8-6 11-12-2-3 7-6zM83 374l-9 9-6-7 10-9 6 6zm-67-74l2-1 9 6-3 6h-5l-6-9zm186-77l2 4-2 11-8-5v-11zm0 124l-9-1-2-2 4-19 12 8-2 10-3 1zm-96-230l6 4 1 2-2 3 2 2-2 2-2-1-5 6-3-2-2-7-7-6 3-4-5 2-3-2v-2h-3l2-2h-5v-4l-5-5 6-1 9 7zm21 26l7 10-5 6-2-2v5l-5 7-12-11 4-3-1-12 3-2 1 1 5-6 1 3 3 1zm85 60l-1 4h-2l-1-4-6-1-8 4 4-18 3-1 10 2 1 12zm130 22l-10 7-7-10 5-4-1-2 5-4 8 12zm17-197l13-11 14 10-11 20-18-12-4-1 1-1zm61 36l18 20-7 7-25-27 7-7 3 4z"/>
      <path d="M280 186v7l6 8v2h-4l-11 9h-4l-6-6-5-1 9-11-5-4 8-8 7-10 5 4v9zm-93 104l11 1v9l-2 3-17-3 2-11h5zm34-74l2-1-2 11-9-1-1-6 3-2h4zm23-5l3 9 8-2 2 1 1 3-1 3-7 7v-4l-6-1 1-3-6-1v-3l-6-1 1-6 9-2z"/>
    </g>
    <g fill="#1D91C4" id="sky-blue">
      <path d="M232 322l3 5-10 7-4-9-8 5 1-9 14-7h6l-4 5zm20-59l-5 4-21-4 1-6 8 2h4v-2h9l9 3-4 2zm-59-1l-8 5-1-1 4-22 5 17zm-38 122l1-5 9 2-1 7-9-2zm-99 61h2l3 10-8 11-12-9 7-9zm58-113l-13-10-2-8 11 3 2 2zm-52-18l-1-6 13-2v12l-11 1-1-3zm97-40v2l-3 1-1 5-2 2-7-1 3-15 10 2v3zm-55-71l-3 3-11-13 8-5 2 1 5 9 1 4zm-26 11l-8-5 14-9 9 10-6 4-1-1-3 4-4-2zm91-6l-7 9-9-6 2-3-1-1 6-7 10 7zm-16-54l-1 5-11-9 10-13 12 9-7 9-2-1zm117 90l2-8-5-5v-4l2-2h2l13 9-10 18v-4zm57-88l-2 2-16-11 10-14 14 9v6l-5 7zm-17-36l-4 9 4 2-1 1-14 6v-2l-5-3 15-18 5 4zm31-17l-9 8-4-2-3-11 1-5-2-2-10-2-5-6h-2l16-22 6-5 11 19-1 13 3 5 6 3zm54 48v-16l2-4 25 17-9 3-12 7-5-7zM156 349v4l-11-1 2-6h7l3 1-1 1zm-2-31v2l-10-1-3-1-3-3v-2l14 2 2 2zm31 47h-7l-3-2v-2h9zm53-135v-4l-6-1 1-6 6 1 2 4h3l-1 3 6 1 1 4h-4l-1 8-11-2 3-6zm108-39l3 2-11 7-4 1-4-3 3-3-3-2 7-9 7 5zm-90-25l2-1 8 8-5 4 1 1-6 8-8-6-2 2 4-10z"/>
      <path d="M337 49l1-1 12 10 6 1 4 4-19 12-2-1-10-18 7-7zM170 351l2-2 16 3-1 6-1 1-17-3 1-1-2-4zm-61 29l2-10 7-1 2 2 5 1 8 6 1-1-2 15-4 2-1-6-9-1v-4l2-2-1-1h-7zm53 24l3-2 7 1-2 9-9-1v-7zm18 19l2-8 13 2-2 9-13-2zm43-145v2l-19-2 2-12 5 1 10 8zM89 399l-5-5 10-9 1 1 2-2-3 5 15-4-9 14-1 5-8-3zm1-30h2l-6 6-11-10-1-3 9-1 6 8z"/>
      <path d="M92 369h-2l-7-8 14-2 2 1 3 4-5 5-3 1zm-12-90l-2 17 4 2-3 6-4-2-3-6-4-15v-2l2-1 8 1zm78 46h-5l1-9 15 2-1 1 2 1-2 4-9 1zm89-46l-13 8h-4l-4-5 17-13 6 8-1 1zm62-30l1 3 10-2 9 6-8 21-8 14-7-4-3-6 10-8-7-13h-4l-4-7 4-6 6-1 1 2zM76 142v2l2 1-4 4 3 5-3 2 1 1-3 3 6 3-13 7v-14l-4-7 10-8-1-2 3-3 3 3v2zm86-15l-9 11-9-7 7-12h2l9 7zm215 18l12 10 8-2 4 5-19 20-2-1v-3l4-4v-4l-5-6-6-4-1-3v-5l4-5zm-191-14l2-2 15 11-3 12-9-1-6-10 1-7zm90 83l14 9-7 10-14-8 7-10zm35-48l-10 14-13-9 11-16 13 10zm8 24l-2 3-11 2-10-7v-2l7-8z"/>
      <path d="M399 160l2-2 13 15-19 15-4 2-6-3-8 5-1-3 2-9h2l17-17z"/>
      <path d="M431 153l-1 1 2 4-10 10h-2l-6 5-13-15 7-5 13-4 9-8 6-2 1 9-4 4h-2zM168 363l-9-1v-2l1-2h6l3 1-1 3zm-5 32l-9-2 1-7 9 2-1 4zm180-256h4v3l-4 8-15-12 7-12-2-1 6-8 5 7-2 6-3-2 1 5-2 2 3 2zm-14 39l8 6-7 9 3 2-3 3-11-8 9-11z"/>
      <path d="M319 190l-6-4 5-7-4-3 5-6 10 8zM28 304l-6-7 25-18 4 9-5 3 1 4-11 9v-7l-2-4-5 3 2 5-3 2zm159 30h6l-2 12-3-2-5 1-11-3 2-10 12 2zM76 102l-3-3 10-13 38 28-8 9-9-8-12-6-6-5-4-2zm153 72l-1 2h-7l3-19 6 4-1 12zm-29 0v-2h2l10 3v14l-13-2-1-2 2-9zm0-2l-4 23h-4l-2-1 1-3-3-6 2-3v-5l-2-4 2-3 7 2v-2l2 2zm130 6l3-5 6 2 5-1 3-3h2l6 6h4l-3 3-14 7-11-8zm60-124l-17 17-7-4 4-11 16-29 12 10 2 5v2l-7 7zM161 433l-1 3-4 1-14-2-1 5 15 3-3 12-24 5-3-7v-10l2-3 3-17 5 3 17 2 8 3zm86-113l-12 7-5-8 4-5-3-1-3 2 6-7 3-9 4 3 2 5 47-32 19 20-13 10-32 8-11 5z"/>
      <path d="M251 302h-2l-2-3 3-2-4-7 8-5 7 10zm-145-52l8 4-2 2-16 4 1-7z"/>
    </g>
    <g fill="#3DB3C8" id="teal">
      <path d="M66 322l-2 13h-5l-1-3 2-12 5-1v2zm90-17l-2-1v-2l12 2-1 11-2 2-14-2 1-4h5zm55 17l-16-3 1-10 17 3v10zm-24-21l2 3-2 11-7-1v-2l-3-1 2-11 5 1zm22-54l-5 1-11-2 1-12 9 5h5l2 4-1 3zm-66-33l14 15-14 11-15-16 4-5zm24 158l-1 3-13-2-3-1v-4h10l5 1 2 2zm-33 7l1-3 9 1 2 1v4l-1 2h-4l-8-2 1-2zm32-3l17 4 2 2-2 9-6-1 2-4-13-3zm-88 40l4 3v3l-7 12-8-10 8-8zm6-91l-1-5 8-1 2 5-1 16h-3l-1-9-3-1-1-4zm-23-18l-14 3v-6l-4-7 4-2v-5l4-2 2 2 10 1-3 6 1 9zm96-25l-2-2 1-3 3-1 1-6 9 2 2 3-2 12-7-2v-3h-4zm-20-1l-2-15 13 2-2 15-8-2zm13-88l1-2 9 9-6 7-8-7h-2l4-5zm61 24l-2 7-7-1 3-20 4 1 2 9zm99 7l9 13-1 2-11 3-4-15-2-2 7-4zm12-61l-2 2 3 3-2 4-19-15 7-10 16 11-2 4z"/>
      <path d="M312 134l5 3-15 20-19-14 27-11zm68 4l-3 4-6-4-7-6-6-11 8-13 23 17zM82 396l-12 11-7-7 14-13 7 7zm120-42v-9l3-1 2-11h2l9 7-5 9-3 12v31l2 6-10-1-6-2-1-2 4-11-1-5 4-22zM444 91l6 5-6 11-3 2-5 16-5-4 4-9 2-16-3-1-3-4 7-7 5 6zM170 351h-2l2 4-1 1-13-2 1-7 14 3zm-67-106l2-1 7 3-7 4-2-2-3 4h-2l-1-3 4-4zm238-141l7-8 4 5h4l9 7-8 13-2-8-5-3-4 5-7-10zM169 359l6 1v4l-6-1zm-9-98v6h-2l-1 2-11-1 8-8 5 1zm135-73l-1 1-5-3 2-2-3-2 5-7 7 5-4 7zM30 310l-8 10-6-6-3 1-6-9 6-4 6 9 3-2 1 2 3-2 1-4 2 1zm106-29l4 1 1 3-1 6-6 2 2-9zM379 22l-7-5 15-17 17 14-3 4v4l-8 11-11-8zm-78 227l-17 15-3-1v-6l-4-2 5-5 24-8 2 3zm-129 94l11 2 5-1v8l-14-2-2-1-1-3z"/>
      <path d="M156 354l11 1 2 1v2l-26-3 2-3 10 1zm-97-6l2-13 10 2v10l-2 2-8-1zm29-17l1 9-14-2 2-11 10 4zm4 56l-7 7-8-7 11-10 5 6v3z"/>
      <path d="M98 381l-4 4-8-10 6-6 3 2 5-6 6 7zm-23-81v2l4 2-1 1-18-8 3-6-10-1-2-2 17-11 4 18 3 4z"/>
      <path d="M80 275v4l-12-1v-6l-2-4 11-7 3 8v5zm105 47l-1 12-10-2 2-13 7 3zM38 173l2-5 21-19 4 6v15l-10 6-4-2v-2h-2l2-3-8 9v2l-6-5 2-2zm96 30l-7-8 6-7 2 3-1 1 10 8-4 5-3 1zm24-96l3 2-8 10-10-7 8-10 5 3zm51 38l2 1-2 5-3 22h-3l-3-1 1-6h-2l4-26zm225-7l-12 10-11-7-1-3 4-2 5-11 9-1 3-3 5 5-2 11zM150 357h10l-1 4h-7l-3-2zm43 48v2l-7-1 2-14 7 1-1 11zm-31-6v3l-9-2 1-7 9 2-1 3zm-41-46v3l-5-1 2-11 5 1-1 7z"/>
      <path d="M150 357l-1 3-8-1 2-4 7 1zm78-159l-1 3h-6l3-14v-11l7 2v4l-3 7v7zM417 12l2 2-2 4 1 1-2 2 2 2 5-1 3 5-8 10-5-4-13 11-3-8-4-3 8-11-1-2 4-6 7 5 1-1zM95 123l4 3 2 7 3 2-1 1 7 4-3 4 7 6-1 7-2 1 11 11-7 12-9-9-3 1-7-5v-2l-5-5v-4l5-1 3-4-1-1v2l-3 2-3-6-1 2-2-2-3-9 3-2 1-3 5-3-2-1-4 3-5-7 2-2-2-1h10zm58 32h3l7-9 14 10-13 17-4-4-2 2-1-4-6-5zm177 48l4-2 5 7-10 8 1 1-4 4-5-4-4-6 4-1 8-6zm30 7l1 1-10 8v-4l-11-16 9-7 11 17zm13-111l14-19 19-17 25 28-3 7-5 5-11 7-7 11v4l-7 6-32-23 6-8zm86 17l-7 1-2 2 1 3-6 6v2h-2l-1 3-3 1-3 3v2h-2l1-12 6-18 3-2 6-11 8 12 1 7z"/>
      <path d="M132 367l-5 5-13-3-3 1-2 4-3-1 3-3-2-6 2-3 9-3v-3l3 1 2-11 20 4h2v-2l1 1-3 9-7 6z"/>
    </g>
    <g fill="#77C8BF" id="lame-green">
      <path d="M156 305v4l-3 2h-4v4l-4-1 2-13 7 1 1 3zm19 3l-9-2 1-8 12 2-1 6-2 2zm-18-26h5l1 4 6 1-2 11-14-2 2-12h-3l4-3zm48 25v3l-9-1 2-14 8 1v9zm47-76h13l2 3-1 3-6-1-3 19v2h3l-3 3-15-4 4-24zm-83 26l-2-1v-3l-5-7 18-11-3 20-7 2zm-2 113l17 2 2 1v3l-19-3zm-1 6l-1 5-16-3 1-5 12 1zm-1 7l14 3-3 4-12-2zM63 413l7-6 7 8-10 9-7-7zm30-79l-1-19 6-2 2 2 2 19h-4l-1 7-5-1zm41-2l-8 2-2-11 11 6v3zm-72-24l-2-3v-8l12 5 2 4-11 2zm168-21l3 4-15 12-2-1v-13l9-7 4 4z"/>
      <path d="M205 288l2-10 19 4-9 6-1 3-11-2zM79 199l11-6 11 13-8 4-9-10-2 2-2-2zm-27-24l2 1 11-6 5 6 9 6-14 15 4 5-2 2-8-5-6-7h-2l-8-12v-2l7-9-1 3h2zm77-29l-7-10 11-13 10 8-1 3-12 14zm97 69l8-2-2 12-11 2 2-12h2zm28-8l7-1 4 4 5 2 14-10-2 5-6 6v2l-9 12-1 5h-10l-4-2 1-3 4-1 1-5-3-3-6 3-3-3-2-8 9-3zm94-68l5 8-1 8-4 11-5 4-5 1-3-2-1-4 10-15z"/>
      <path d="M326 96l-1 1 3 12 4 2 7-6 2 2 9 18-3 6 11 9v14l-3 6 1 5h2l3-3 2 3 9 1 3-3-3-2 2-4 10 9v4l-4 4v6l-3-1 2-6-3-4-6 2-6-1-2 2v4l-4 2-4-3h-3l-2-4-10 4-6-2 2-4 4 2 8-4 5-11 1-10-6-7h-4l-5-4 2-2-1-4 3 1 2-3-2-7-2-3-4-1-10 8-3-4-9 8-6-4 4-9-3-5 8-8-8-1-3-3-9-2 10-13h2l6 7 9 1 2 4zm138-19l5 1 4 4-4 10 1 5-2 8-2 2 1 1-4 4v2l-4 2-1-7-5-9-10-10-1-10 3-2 5 1 14-3zM59 346v2h2v6l-9-2 3-18 5 1zm126 20l1-6 5-1-2 14-5-1z"/>
      <path d="M184 372l-9-1 1-7 9 2-1 5zm-2-107l-4-1 1-9h-2l1-6 3-2 7 1-3 16zm41-12h5l-1 7-16-2-3-2 5-3h9zm130-62l-4 2-8-6 6-2 11-7 5 8-9 4zm-130 87l3-15 7 1 2 2-2 10-7 6-3-1zM364 66l9 5-20 21-7 4-5-4-2-4 1-13 20-12zM155 286l-3 10-13-3 3-11 13 2zm2 42l1-3h10l-2 8-7-1-2-1v-2zM76 144v-4l-3-4-3 3 1 2-9 8-2-2-2-17-4-7 15-20 6 3 4 5-10 9h4l3 2-1 3-6 3h5l2 2-1 2 6 3-3 3 2 2 1-1v4l-2 1 4 6-3 2-4-4 2-3zm76 258v3l-15-3 2-7 12 2 2 2-1 2zm30 12l-12-1 2-9 11 1zm-3 10l-10-2 1-9 12 2zm-99-62l-8-1 1-10 3-1 9 2-2 9-2 1zm-33-52H36v-6l7-7 4 7zm218-46v2l-16 11-6-8 14-9h4l3 3z"/>
      <path d="M37 143l17-20 4 7 3 19-23 21 1 3-2 2-14-15 12-14zm66-7l6-7 1 1 3-2-2-2 2-3 1 3 8 9-3 5-5 3-1 5-5-2-1-2 3-4-2-2-1 1zm17 51l-5-5 4-6-1-2 8-10-1 3 4 6-2 5 9 7-9 10-4-5z"/>
      <path d="M148 186l3 3v2l-7 9-10-8 1-1-2-4 3-2 7-10 5 10zm-6-56l-6-5h-2l9-13 8 6-4 9-4 4zm17 13l-6-5 9-11 10 7-2 2-3-1-3 3 2 4-3 4zm107 16l6-6 2 8 9 5-3 10-5-4-4 5-9-7-4-5z"/>
      <path d="M288 170l-5-3-1-4 2-11 3-6 12 9-10 14zm27 24l5-4 14 11-4 1-5 6-7 2zm50-61l2 1 1 15-2 6h-5l-4-2 1-13-8-7v-3l7-9zM137 364l-1-1 5-4 13 2-1 6zm171-238l1-1 4 3 10-7 3 3 10-8 6 3-1 1-2-3-6 8 2 1-2 2-1 5-4 4-8-4-3 4-11-8 1-1zM170 287l1-11-2-3 5-1 2 4-1 6-1 5h-3zm8-114v-4l10 1 2 8-3 2-2-1-2 2h-4l-1-7zm-60 184l-9 4v-11l2-7 7 1-2 8zm-15-15h2l-2 13 1 3-5 1 1-13 1-3z"/>
      <path d="M89 340l12 2-1 6-4-1-1 2-10-2 2-8zm-53-36l1 15 7 2-1 4 1 2h4l1 6-7-5h-3l-5 4-3-5-8 2-7-5-1 1-1-3-7-1v-2l-7-9 6-4 7 9 3-1 6 6 8-9v-2l-1-3-11-7 4-2 1 3 5 4 3-3-2-5 5-3 2 3-1 2zm132 59l7 1v7l-8-1zm76-183l-1 1-2-2-9-1-4-2 2-14 17 12v4l-2 2zm-32 3v-8l9 1-3 20-1 3-3 1-2-6zm-28 37l-8-2 1-13 7-3 7 13 1 7-7-2zm121-23l-7 14-12-8 2-2 17-5zm73-17l-2 10 1 7-10 9-2-2 2-2-1-3-6-12 17-8zm60-96l-10-10 7-6 6 7 3 15-5-4z"/>
    </g>
    <g fill="#BAE2BA" id="lite-green">
      <path d="M54 334l-5-1v-12l11 2-2 12zm119-15l-9-2 2-11 11 2-1 11h-2zm97-76v2l4 2-10 8-7 2 3-21 6 1 1-5h2l3 4v4l-2 2zm-79-14l-6 3-8-13 17 3v4l-3 2zm-59 138l4-4 2 2 13 2-2 11-10-2h-4l-2 2-7-6h2zm35 6l19 3-1 5-7-3-12-2zM66 322l-1-3 10-2 2 12-11-2zm42 12h-6l-1-12 13 11-5 1zm126-26l-4 4-12-9 4-5 11-7 4 6-3 10zm-34-19l15 2v6l-16-2-2-7 2 1zm-14-11v-2l3-1 4 1-1 3 6 13-9-3-1-5-3-4zm-36 136l3-14 9 2-2 11-5-1v3l-4-1zM96 229l2-2-3-4 9-2 2-4v8h6v4l-4 2-3 7zm73-7l2 2-1 2-12 3-9-9 6-8zm-7-51l2 2 5-6 4 3-8 10-4-2-2-9zm-15-29l-11 15-6-9 14-17 7 6-3 4z"/>
      <path d="M202 223l-10-1 2-15 7-5 4 1zm29-25l-3 16-13 3-1-1 3-15h10l3-2z"/>
      <path d="M243 193l4 4v10l-5 5-14 2 3-16 8 2 3-5zm34 61l-3-1 6-14 4-5 7 6 3 6-10 3zm20-145l8 6-13 16-15-11 12-17 7 5zM64 389l2-8-2-2h-6l2-4-2-3-9-1 1-2 8-4 19 22-12 11-11-4 2-5h4l2 2zm86 30v8l-14-1-5-4 1-11 20-5zm205-306l2 7-8 13-2-4 3-4-4-9 4-6 4 3 1-1zM165 265l-1 6-7-2 4-5 1-9 5 1-1 6zm92-80l5-7-1-1 4-4 6 4-11 13-4-4zm-10 82l-13 9v-7l2-4 10 2zM366 67l-7-6v-2l8-9-2-2 2-2-2-2 1-2 9 5-8 18zM170 356l14 2 2 1v3l-17-3v-3z"/>
      <path d="M144 408l-8 2 1-8 15 3-2 2zm-48-48l-12 1v-8l4-1 11 2-2 5zm30-19l-1-7 9-2 2 2-2 13-8-1zm-12-8v10l-2 1-14-3v-7l13-1zm-27 64l4 4h2l-10 18-4-2-9-10 14-13 2 3zM68 272l-1 6-16 10-1-6-3-3 19-11 1 3zm119 62h-2l-1-2 1-9h4l5 3-1 8zm-36-83l-5 4-6 2-4 5-7 1 1-8-2-5 4-4 9-4 11-10 10 13-9 5zm30 14h4l-2 9-19-3 3-15 7 1 1-3 3 1v8l2 2zm-68-85l16 17 4 5-1 1h-2l-1-2-1 1-6-2-3-8h-2l-4-5-1 3-3-2-1-4 2-2v-3l-3 4h-2v-3l-3-2v-2l3-4 8 7zm27-11l3 6-7 10-9-7 2-5-4-6 2-5-1-3h3l5-5zm-21-37l-6-9 8-9 11 9v2l-5 5v2l-5 4v-2zm36-11l-2-2 8-10 9 7-8 11-6-5zm29 20l-2 3v-2l-3-3-10-7 9-11 10 8-2 2-1 9zm100 62l7 3 10 8-11 9-14-10 6-6 1-3zm-3-61l5 4-4 15 1 5-9-5v-4l-2-3 3-5zm164 27l-3 4-4 1-12 13-12-14 6-5h2l10-10 1 2h4l8 8z"/>
      <path d="M177 123l-8 9-7-5 8-10 8 4-1 1zm-62 258h5l-2 2-1 8 10 14v4l-3 4 7-2 1 1-1 15-3 13-2 1 1 5-5 5 2 3-2 11 2 2-1 2 2 7 1 19-19 12-7 7-6-7v-7l3-3-1-1 4-6-1-5-2-2-12 3-2-3-7 5-3-2-4-13-6-2-6 5-3 10-6 8-8 4-12-1 8-5 14-20 6-4-3-2 8-11-3-10 6-3 9-11 2 4 18-34 6 4 1-6 9-13-15 4 3-6-2 2-1-1 12-11h4l-1 5 5 2zm55 16l6-7h3l-3 14-11-2 3-4zm17-2l-1 10h-5l2-14 4 1 1 2zm127-211h-3l-8-6 9-13 7 5-5 6 4 3zM109 358h-4l-2-3 2-13 5 1 1 2-2 11zm-37-1v2l-11-2v-9l11 2v6zm16 20l-11 10-3-4 10-10 2 2zm127-202h-5l-4-2 2-12 15 4-2 11-5-1zm-16-9h2l-1 6-2-2-7 1-12-2v-10l13 6 6 1zm112 59l-9-11 15-4 8 11-11 8zm58-150l4-4h2l11 11-20 26-12-8-2 2-4-6 16-15zm61 46l-13-14 11-9 3-6 6 4v4l-2 3-1 13zM159 421l33 5 1 1-2 8-33-6z"/>
    </g>
    <g fill="#EEF6CF" id="yellow">
      <path d="M179 320l-3-1 1-8 6 4h4v-2l9 1-2 11-13-4zm20 59l-1 6-13-4 1-5 2 2 10 2zM84 326v4l-8-3-1-10h4l2 3h2l1 5zm128-15l-6-1-1-3 2-11 7 1v3l4 3-4 8zm-60-127l-3 4-8-17 8-10 9 8 2 6-4 5zm191-34l-2 5-6 7-1 9-5 7-8-6 2-4-3-3 13-17v-6zm-53 125l-29 20-6-8 14-9-2-3 14-10h2l4 4zM53 334h2v2l-3 15h-9l3-6-3-3v-2l4-2 1-5 4 1zm120-1h-7l2-12 3-3 5 1z"/>
      <path d="M309 295l-15-15-12-15 16-13 4 8 3-2 8 14-5 6-5 3 3 6 7 4-1 1zm-3-100l-15 6h-5l10-14 9 7zm9-2l2 12-1 6-15 3-3-3 2-2 3-10 3-4 8-2zM157 436h3l1-5-4-2 13 3-1 12-3 10h-12l2-11-15-3 1-5 15 2zm19-240l2-3v-12l12-2-2 5 3 6v4l-3 6-2 3-2-1-6 2v-6zm-69 46l3-1 4 3 12 4 3 3 1 4-1 7 7 1-1 6 2 9-5 28 3 1 3 8 14 15-11 1 4 4 2 5 1 6-3 3-11-2 2-13-3-7-6-4-15-5 7-4-1-3-11-1-14-8-9-4h-4l-2-2 1-8 8-7 6-11 9-4h4l2-4h3l3-4 2-4-10-4 6-3-6-4z"/>
    </g>
  </g>
</svg>
