---
# Front matter comment to ensure Jekyll properly reads file.
---

<svg viewBox="0 0 473 514" xmlns="http://www.w3.org/2000/svg">
  <g fill="none" fill-rule="evenodd">
    <g fill="#BAE2BA" id="lite-green">
      <path d="M54 334l-5-1v-12l11 2-2 12zm119-15l-9-2 2-11 11 2-1 11h-2zm97-76v2l4 2-10 8-7 2 3-21 6 1 1-5h2l3 4v4l-2 2zm-79-14l-6 3-8-13 17 3v4l-3 2zm-59 138l4-4 2 2 13 2-2 11-10-2h-4l-2 2-7-6h2zm35 6l19 3-1 5-7-3-12-2zM66 322l-1-3 10-2 2 12-11-2zm42 12h-6l-1-12 13 11-5 1zm126-26l-4 4-12-9 4-5 11-7 4 6-3 10zm-34-19l15 2v6l-16-2-2-7 2 1zm-14-11v-2l3-1 4 1-1 3 6 13-9-3-1-5-3-4zm-36 136l3-14 9 2-2 11-5-1v3l-4-1zM96 229l2-2-3-4 9-2 2-4v8h6v4l-4 2-3 7zm73-7l2 2-1 2-12 3-9-9 6-8zm-7-51l2 2 5-6 4 3-8 10-4-2-2-9zm-15-29l-11 15-6-9 14-17 7 6-3 4z"/>
      <path d="M202 223l-10-1 2-15 7-5 4 1zm29-25l-3 16-13 3-1-1 3-15h10l3-2z"/>
      <path d="M243 193l4 4v10l-5 5-14 2 3-16 8 2 3-5zm34 61l-3-1 6-14 4-5 7 6 3 6-10 3zm20-145l8 6-13 16-15-11 12-17 7 5zM64 389l2-8-2-2h-6l2-4-2-3-9-1 1-2 8-4 19 22-12 11-11-4 2-5h4l2 2zm86 30v8l-14-1-5-4 1-11 20-5zm205-306l2 7-8 13-2-4 3-4-4-9 4-6 4 3 1-1zM165 265l-1 6-7-2 4-5 1-9 5 1-1 6zm92-80l5-7-1-1 4-4 6 4-11 13-4-4zm-10 82l-13 9v-7l2-4 10 2zM366 67l-7-6v-2l8-9-2-2 2-2-2-2 1-2 9 5-8 18zM170 356l14 2 2 1v3l-17-3v-3z"/>
      <path d="M144 408l-8 2 1-8 15 3-2 2zm-48-48l-12 1v-8l4-1 11 2-2 5zm30-19l-1-7 9-2 2 2-2 13-8-1zm-12-8v10l-2 1-14-3v-7l13-1zm-27 64l4 4h2l-10 18-4-2-9-10 14-13 2 3zM68 272l-1 6-16 10-1-6-3-3 19-11 1 3zm119 62h-2l-1-2 1-9h4l5 3-1 8zm-36-83l-5 4-6 2-4 5-7 1 1-8-2-5 4-4 9-4 11-10 10 13-9 5zm30 14h4l-2 9-19-3 3-15 7 1 1-3 3 1v8l2 2zm-68-85l16 17 4 5-1 1h-2l-1-2-1 1-6-2-3-8h-2l-4-5-1 3-3-2-1-4 2-2v-3l-3 4h-2v-3l-3-2v-2l3-4 8 7zm27-11l3 6-7 10-9-7 2-5-4-6 2-5-1-3h3l5-5zm-21-37l-6-9 8-9 11 9v2l-5 5v2l-5 4v-2zm36-11l-2-2 8-10 9 7-8 11-6-5zm29 20l-2 3v-2l-3-3-10-7 9-11 10 8-2 2-1 9zm100 62l7 3 10 8-11 9-14-10 6-6 1-3zm-3-61l5 4-4 15 1 5-9-5v-4l-2-3 3-5zm164 27l-3 4-4 1-12 13-12-14 6-5h2l10-10 1 2h4l8 8z"/>
      <path d="M177 123l-8 9-7-5 8-10 8 4-1 1zm-62 258h5l-2 2-1 8 10 14v4l-3 4 7-2 1 1-1 15-3 13-2 1 1 5-5 5 2 3-2 11 2 2-1 2 2 7 1 19-19 12-7 7-6-7v-7l3-3-1-1 4-6-1-5-2-2-12 3-2-3-7 5-3-2-4-13-6-2-6 5-3 10-6 8-8 4-12-1 8-5 14-20 6-4-3-2 8-11-3-10 6-3 9-11 2 4 18-34 6 4 1-6 9-13-15 4 3-6-2 2-1-1 12-11h4l-1 5 5 2zm55 16l6-7h3l-3 14-11-2 3-4zm17-2l-1 10h-5l2-14 4 1 1 2zm127-211h-3l-8-6 9-13 7 5-5 6 4 3zM109 358h-4l-2-3 2-13 5 1 1 2-2 11zm-37-1v2l-11-2v-9l11 2v6zm16 20l-11 10-3-4 10-10 2 2zm127-202h-5l-4-2 2-12 15 4-2 11-5-1zm-16-9h2l-1 6-2-2-7 1-12-2v-10l13 6 6 1zm112 59l-9-11 15-4 8 11-11 8zm58-150l4-4h2l11 11-20 26-12-8-2 2-4-6 16-15zm61 46l-13-14 11-9 3-6 6 4v4l-2 3-1 13zM159 421l33 5 1 1-2 8-33-6z"/>
    </g>
  </g>
</svg>
