---
# Front matter comment to ensure Jekyll properly reads file.
---

<svg viewBox="0 0 473 514" xmlns="http://www.w3.org/2000/svg">
  <g fill="none" fill-rule="evenodd">
    <g fill="#2261AE" id="blue">
      <path d="M158 302l-1-5 9 1v6l-7-1zm12-15l11 2-2 11-9-1-3-2 2-10zm40-47l-7-2-1-3 2-11 5 1v-2h2v2h2l-2 12zm-4 16l-13 7v-17l15 2 1 3-2 5z"/>
      <path d="M191 229l3-3v17l-2 13-8-24 5-3zM64 412l-12 11-2-2v-5l15-14 5 5-5 4zm-4-92v3l-11-2-1-11 12-2 3 11zm59 1l8 2 2 2-5-2 1 11-10 1-2-5-1-12zm0-10l-1 5-7 2-12-4-2-9 15 7zm111 1l-4 4-13 6v-8l5-11zm-25-24h-7l-5-6v-5l5-1 8 2-1 9zm-16 2l-7-1-1-3 2-11 2-1v6l5 10zm-46-76l-11 5-17 19-7-4 6-2 8-12 1 1v-2l5-3-1-1 5-5 6-1zm-54 7l-7-4 2-1v-2h3l14-8 5 11-2 4-4 2h-5l3 4-2 2zm85-9l2 4-4 4-1 4-9-7 7-8v-2h2l3 4zm-23-21l-1-3 2-4 8-9 1 6-3 6v4l10 2-6 7-4-2-6-7zm27-19v2l-9-7 8-11 2 2zm-38-3l-4-12 5-7 11 9-11 12v-2zm116 37l-12 4 3-3v-10l-4-4-1-7 5-8v-4l2 1-2 7h4l14 12zm14-73l-2-2 9-11 15 11-2 2 5 3v2l-7 2-4 3-11-8zm41-16l-1 3v-2l-21-15 5-3 3-4 4-1-1 1 9 5 9 1-9 7 3 6z"/>
      <path d="M48 416v-6l5-8-1-7 1-1 11 3 1 1-2 2 2 2-16 15zM441 59l-8 6 2 3-7 5-21-22-4 1-3-8 13-12 5 5 9-10h4l3 2-1 5 7 1 4-2 4 2 4 5 7-3 2 2h-6l-5 5 2 2-6 7zm-70 79l5 4-4 6v5l2 4-2 4 3 2-3 3-10-1-1-2-4 2-2-6 3-5 8 1 2-6-1-15 4 3zM189 369l2-10 7 1 3 2-2 13-10-2v-3zm-87-111l8-1 6-3-5 8h-3l-2 4-4-1-11 8-4-17 10-7-2 11 6-2zm121-70l-2 12h-4l4-24 3 1v10zm-10 76l-6-1 1-6 19 4-1 5zM55 504l-10-7-5 1 5-4.5 7-3.5 3-10 3-11 9-1.5 3 4.5 5 6.5 8 4.5 2 3 11-3 3 1 1 5-4 7 1 1-3 3v-2l-9 1-18-3-9 9zm102-177v4h-3l-7-7 11 1-1 1zm116-80v4l8 6v6l2 2h-2l-14 10 2 3-14 9-6-9 6-6 11-7-5-5h-4l15-12zm104-49l5 1-6 5 13 19-2 2-11 5-18 3-7 3-13 8-6 6-3 6-9-6-10 2-3-9 20-8 20-13zM149 339l23 4-1 6-17-3-5 1-1-8zm-13 56l-5-1 2-12 12 2-1 11h-7zm13 24l1-5 4 1 1-3 5 1-3 16-7-1-1-7zm44-3l-11-2 1-8 10 1z"/>
      <path d="M80 275l-1-11-2-3 10-6 4 18-4 8-7 5v-10zm114-2l-1 3-10-2 1-7 8-4 2 1 1 3-1 3zm46 21l-3 4-7-11 7-2 12-8 5 8-14 10zm-86-84l-1 1 2 1-6 8-12-14 3-1 4-5h2l9 8zm13-61l-4-3 4-6-3-1 3-5 3 2 2-2 2 1 8 7v2l-8 10zm25 16l-9-4v-3l10-7 7 1 1 2-2 11h-5zm108 79l-6 2v-2l-3-3 9-12 1-4 2 2 4 14-4 2zm-20-57l-1-8 4-12 10 8-5 6-4 9-4 4-1-6zM460 39l2 2v4l-1 9-3 3 4 2-1 3h2l2 4-1 11-14 2-5-1-3 2-1-5-8-10 8-6 11-12-2-3 7-6zM83 374l-9 9-6-7 10-9 6 6zm-67-74l2-1 9 6-3 6h-5l-6-9zm186-77l2 4-2 11-8-5v-11zm0 124l-9-1-2-2 4-19 12 8-2 10-3 1zm-96-230l6 4 1 2-2 3 2 2-2 2-2-1-5 6-3-2-2-7-7-6 3-4-5 2-3-2v-2h-3l2-2h-5v-4l-5-5 6-1 9 7zm21 26l7 10-5 6-2-2v5l-5 7-12-11 4-3-1-12 3-2 1 1 5-6 1 3 3 1zm85 60l-1 4h-2l-1-4-6-1-8 4 4-18 3-1 10 2 1 12zm130 22l-10 7-7-10 5-4-1-2 5-4 8 12zm17-197l13-11 14 10-11 20-18-12-4-1 1-1zm61 36l18 20-7 7-25-27 7-7 3 4z"/>
      <path d="M280 186v7l6 8v2h-4l-11 9h-4l-6-6-5-1 9-11-5-4 8-8 7-10 5 4v9zm-93 104l11 1v9l-2 3-17-3 2-11h5zm34-74l2-1-2 11-9-1-1-6 3-2h4zm23-5l3 9 8-2 2 1 1 3-1 3-7 7v-4l-6-1 1-3-6-1v-3l-6-1 1-6 9-2z"/>
    </g>
  </g>
</svg>
