---
# Front matter comment to ensure Jekyll properly reads file.
---

<svg viewBox="0 0 473 514" xmlns="http://www.w3.org/2000/svg">
  <g fill="none" fill-rule="evenodd">
    <g fill="#EEF6CF" id="yellow">
      <path d="M179 320l-3-1 1-8 6 4h4v-2l9 1-2 11-13-4zm20 59l-1 6-13-4 1-5 2 2 10 2zM84 326v4l-8-3-1-10h4l2 3h2l1 5zm128-15l-6-1-1-3 2-11 7 1v3l4 3-4 8zm-60-127l-3 4-8-17 8-10 9 8 2 6-4 5zm191-34l-2 5-6 7-1 9-5 7-8-6 2-4-3-3 13-17v-6zm-53 125l-29 20-6-8 14-9-2-3 14-10h2l4 4zM53 334h2v2l-3 15h-9l3-6-3-3v-2l4-2 1-5 4 1zm120-1h-7l2-12 3-3 5 1z"/>
      <path d="M309 295l-15-15-12-15 16-13 4 8 3-2 8 14-5 6-5 3 3 6 7 4-1 1zm-3-100l-15 6h-5l10-14 9 7zm9-2l2 12-1 6-15 3-3-3 2-2 3-10 3-4 8-2zM157 436h3l1-5-4-2 13 3-1 12-3 10h-12l2-11-15-3 1-5 15 2zm19-240l2-3v-12l12-2-2 5 3 6v4l-3 6-2 3-2-1-6 2v-6zm-69 46l3-1 4 3 12 4 3 3 1 4-1 7 7 1-1 6 2 9-5 28 3 1 3 8 14 15-11 1 4 4 2 5 1 6-3 3-11-2 2-13-3-7-6-4-15-5 7-4-1-3-11-1-14-8-9-4h-4l-2-2 1-8 8-7 6-11 9-4h4l2-4h3l3-4 2-4-10-4 6-3-6-4z"/>
    </g>
  </g>
</svg>
