---
# Front matter comment to ensure Jekyll properly reads file.
---

<svg viewBox="0 0 473 514" xmlns="http://www.w3.org/2000/svg">
  <g fill="none" fill-rule="evenodd">
    <g fill="#3DB3C8" id="teal">
      <path d="M66 322l-2 13h-5l-1-3 2-12 5-1v2zm90-17l-2-1v-2l12 2-1 11-2 2-14-2 1-4h5zm55 17l-16-3 1-10 17 3v10zm-24-21l2 3-2 11-7-1v-2l-3-1 2-11 5 1zm22-54l-5 1-11-2 1-12 9 5h5l2 4-1 3zm-66-33l14 15-14 11-15-16 4-5zm24 158l-1 3-13-2-3-1v-4h10l5 1 2 2zm-33 7l1-3 9 1 2 1v4l-1 2h-4l-8-2 1-2zm32-3l17 4 2 2-2 9-6-1 2-4-13-3zm-88 40l4 3v3l-7 12-8-10 8-8zm6-91l-1-5 8-1 2 5-1 16h-3l-1-9-3-1-1-4zm-23-18l-14 3v-6l-4-7 4-2v-5l4-2 2 2 10 1-3 6 1 9zm96-25l-2-2 1-3 3-1 1-6 9 2 2 3-2 12-7-2v-3h-4zm-20-1l-2-15 13 2-2 15-8-2zm13-88l1-2 9 9-6 7-8-7h-2l4-5zm61 24l-2 7-7-1 3-20 4 1 2 9zm99 7l9 13-1 2-11 3-4-15-2-2 7-4zm12-61l-2 2 3 3-2 4-19-15 7-10 16 11-2 4z"/>
      <path d="M312 134l5 3-15 20-19-14 27-11zm68 4l-3 4-6-4-7-6-6-11 8-13 23 17zM82 396l-12 11-7-7 14-13 7 7zm120-42v-9l3-1 2-11h2l9 7-5 9-3 12v31l2 6-10-1-6-2-1-2 4-11-1-5 4-22zM444 91l6 5-6 11-3 2-5 16-5-4 4-9 2-16-3-1-3-4 7-7 5 6zM170 351h-2l2 4-1 1-13-2 1-7 14 3zm-67-106l2-1 7 3-7 4-2-2-3 4h-2l-1-3 4-4zm238-141l7-8 4 5h4l9 7-8 13-2-8-5-3-4 5-7-10zM169 359l6 1v4l-6-1zm-9-98v6h-2l-1 2-11-1 8-8 5 1zm135-73l-1 1-5-3 2-2-3-2 5-7 7 5-4 7zM30 310l-8 10-6-6-3 1-6-9 6-4 6 9 3-2 1 2 3-2 1-4 2 1zm106-29l4 1 1 3-1 6-6 2 2-9zM379 22l-7-5 15-17 17 14-3 4v4l-8 11-11-8zm-78 227l-17 15-3-1v-6l-4-2 5-5 24-8 2 3zm-129 94l11 2 5-1v8l-14-2-2-1-1-3z"/>
      <path d="M156 354l11 1 2 1v2l-26-3 2-3 10 1zm-97-6l2-13 10 2v10l-2 2-8-1zm29-17l1 9-14-2 2-11 10 4zm4 56l-7 7-8-7 11-10 5 6v3z"/>
      <path d="M98 381l-4 4-8-10 6-6 3 2 5-6 6 7zm-23-81v2l4 2-1 1-18-8 3-6-10-1-2-2 17-11 4 18 3 4z"/>
      <path d="M80 275v4l-12-1v-6l-2-4 11-7 3 8v5zm105 47l-1 12-10-2 2-13 7 3zM38 173l2-5 21-19 4 6v15l-10 6-4-2v-2h-2l2-3-8 9v2l-6-5 2-2zm96 30l-7-8 6-7 2 3-1 1 10 8-4 5-3 1zm24-96l3 2-8 10-10-7 8-10 5 3zm51 38l2 1-2 5-3 22h-3l-3-1 1-6h-2l4-26zm225-7l-12 10-11-7-1-3 4-2 5-11 9-1 3-3 5 5-2 11zM150 357h10l-1 4h-7l-3-2zm43 48v2l-7-1 2-14 7 1-1 11zm-31-6v3l-9-2 1-7 9 2-1 3zm-41-46v3l-5-1 2-11 5 1-1 7z"/>
      <path d="M150 357l-1 3-8-1 2-4 7 1zm78-159l-1 3h-6l3-14v-11l7 2v4l-3 7v7zM417 12l2 2-2 4 1 1-2 2 2 2 5-1 3 5-8 10-5-4-13 11-3-8-4-3 8-11-1-2 4-6 7 5 1-1zM95 123l4 3 2 7 3 2-1 1 7 4-3 4 7 6-1 7-2 1 11 11-7 12-9-9-3 1-7-5v-2l-5-5v-4l5-1 3-4-1-1v2l-3 2-3-6-1 2-2-2-3-9 3-2 1-3 5-3-2-1-4 3-5-7 2-2-2-1h10zm58 32h3l7-9 14 10-13 17-4-4-2 2-1-4-6-5zm177 48l4-2 5 7-10 8 1 1-4 4-5-4-4-6 4-1 8-6zm30 7l1 1-10 8v-4l-11-16 9-7 11 17zm13-111l14-19 19-17 25 28-3 7-5 5-11 7-7 11v4l-7 6-32-23 6-8zm86 17l-7 1-2 2 1 3-6 6v2h-2l-1 3-3 1-3 3v2h-2l1-12 6-18 3-2 6-11 8 12 1 7z"/>
      <path d="M132 367l-5 5-13-3-3 1-2 4-3-1 3-3-2-6 2-3 9-3v-3l3 1 2-11 20 4h2v-2l1 1-3 9-7 6z"/>
    </g>
  </g>
</svg>
