---
# Front matter comment to ensure Jekyll properly reads file.
---

<svg viewBox="0 0 473 514" xmlns="http://www.w3.org/2000/svg">
  <g fill="none" fill-rule="evenodd">
    <g fill="#77C8BF" id="lame-green">
      <path d="M156 305v4l-3 2h-4v4l-4-1 2-13 7 1 1 3zm19 3l-9-2 1-8 12 2-1 6-2 2zm-18-26h5l1 4 6 1-2 11-14-2 2-12h-3l4-3zm48 25v3l-9-1 2-14 8 1v9zm47-76h13l2 3-1 3-6-1-3 19v2h3l-3 3-15-4 4-24zm-83 26l-2-1v-3l-5-7 18-11-3 20-7 2zm-2 113l17 2 2 1v3l-19-3zm-1 6l-1 5-16-3 1-5 12 1zm-1 7l14 3-3 4-12-2zM63 413l7-6 7 8-10 9-7-7zm30-79l-1-19 6-2 2 2 2 19h-4l-1 7-5-1zm41-2l-8 2-2-11 11 6v3zm-72-24l-2-3v-8l12 5 2 4-11 2zm168-21l3 4-15 12-2-1v-13l9-7 4 4z"/>
      <path d="M205 288l2-10 19 4-9 6-1 3-11-2zM79 199l11-6 11 13-8 4-9-10-2 2-2-2zm-27-24l2 1 11-6 5 6 9 6-14 15 4 5-2 2-8-5-6-7h-2l-8-12v-2l7-9-1 3h2zm77-29l-7-10 11-13 10 8-1 3-12 14zm97 69l8-2-2 12-11 2 2-12h2zm28-8l7-1 4 4 5 2 14-10-2 5-6 6v2l-9 12-1 5h-10l-4-2 1-3 4-1 1-5-3-3-6 3-3-3-2-8 9-3zm94-68l5 8-1 8-4 11-5 4-5 1-3-2-1-4 10-15z"/>
      <path d="M326 96l-1 1 3 12 4 2 7-6 2 2 9 18-3 6 11 9v14l-3 6 1 5h2l3-3 2 3 9 1 3-3-3-2 2-4 10 9v4l-4 4v6l-3-1 2-6-3-4-6 2-6-1-2 2v4l-4 2-4-3h-3l-2-4-10 4-6-2 2-4 4 2 8-4 5-11 1-10-6-7h-4l-5-4 2-2-1-4 3 1 2-3-2-7-2-3-4-1-10 8-3-4-9 8-6-4 4-9-3-5 8-8-8-1-3-3-9-2 10-13h2l6 7 9 1 2 4zm138-19l5 1 4 4-4 10 1 5-2 8-2 2 1 1-4 4v2l-4 2-1-7-5-9-10-10-1-10 3-2 5 1 14-3zM59 346v2h2v6l-9-2 3-18 5 1zm126 20l1-6 5-1-2 14-5-1z"/>
      <path d="M184 372l-9-1 1-7 9 2-1 5zm-2-107l-4-1 1-9h-2l1-6 3-2 7 1-3 16zm41-12h5l-1 7-16-2-3-2 5-3h9zm130-62l-4 2-8-6 6-2 11-7 5 8-9 4zm-130 87l3-15 7 1 2 2-2 10-7 6-3-1zM364 66l9 5-20 21-7 4-5-4-2-4 1-13 20-12zM155 286l-3 10-13-3 3-11 13 2zm2 42l1-3h10l-2 8-7-1-2-1v-2zM76 144v-4l-3-4-3 3 1 2-9 8-2-2-2-17-4-7 15-20 6 3 4 5-10 9h4l3 2-1 3-6 3h5l2 2-1 2 6 3-3 3 2 2 1-1v4l-2 1 4 6-3 2-4-4 2-3zm76 258v3l-15-3 2-7 12 2 2 2-1 2zm30 12l-12-1 2-9 11 1zm-3 10l-10-2 1-9 12 2zm-99-62l-8-1 1-10 3-1 9 2-2 9-2 1zm-33-52H36v-6l7-7 4 7zm218-46v2l-16 11-6-8 14-9h4l3 3z"/>
      <path d="M37 143l17-20 4 7 3 19-23 21 1 3-2 2-14-15 12-14zm66-7l6-7 1 1 3-2-2-2 2-3 1 3 8 9-3 5-5 3-1 5-5-2-1-2 3-4-2-2-1 1zm17 51l-5-5 4-6-1-2 8-10-1 3 4 6-2 5 9 7-9 10-4-5z"/>
      <path d="M148 186l3 3v2l-7 9-10-8 1-1-2-4 3-2 7-10 5 10zm-6-56l-6-5h-2l9-13 8 6-4 9-4 4zm17 13l-6-5 9-11 10 7-2 2-3-1-3 3 2 4-3 4zm107 16l6-6 2 8 9 5-3 10-5-4-4 5-9-7-4-5z"/>
      <path d="M288 170l-5-3-1-4 2-11 3-6 12 9-10 14zm27 24l5-4 14 11-4 1-5 6-7 2zm50-61l2 1 1 15-2 6h-5l-4-2 1-13-8-7v-3l7-9zM137 364l-1-1 5-4 13 2-1 6zm171-238l1-1 4 3 10-7 3 3 10-8 6 3-1 1-2-3-6 8 2 1-2 2-1 5-4 4-8-4-3 4-11-8 1-1zM170 287l1-11-2-3 5-1 2 4-1 6-1 5h-3zm8-114v-4l10 1 2 8-3 2-2-1-2 2h-4l-1-7zm-60 184l-9 4v-11l2-7 7 1-2 8zm-15-15h2l-2 13 1 3-5 1 1-13 1-3z"/>
      <path d="M89 340l12 2-1 6-4-1-1 2-10-2 2-8zm-53-36l1 15 7 2-1 4 1 2h4l1 6-7-5h-3l-5 4-3-5-8 2-7-5-1 1-1-3-7-1v-2l-7-9 6-4 7 9 3-1 6 6 8-9v-2l-1-3-11-7 4-2 1 3 5 4 3-3-2-5 5-3 2 3-1 2zm132 59l7 1v7l-8-1zm76-183l-1 1-2-2-9-1-4-2 2-14 17 12v4l-2 2zm-32 3v-8l9 1-3 20-1 3-3 1-2-6zm-28 37l-8-2 1-13 7-3 7 13 1 7-7-2zm121-23l-7 14-12-8 2-2 17-5zm73-17l-2 10 1 7-10 9-2-2 2-2-1-3-6-12 17-8zm60-96l-10-10 7-6 6 7 3 15-5-4z"/>
    </g>
  </g>
</svg>
