---
# Front matter comment to ensure Jekyll properly reads file.
---

<svg viewBox="0 0 473 514" xmlns="http://www.w3.org/2000/svg">
  <g fill="none" fill-rule="evenodd">
    <g fill="#1D91C4" id="sky-blue">
      <path d="M232 322l3 5-10 7-4-9-8 5 1-9 14-7h6l-4 5zm20-59l-5 4-21-4 1-6 8 2h4v-2h9l9 3-4 2zm-59-1l-8 5-1-1 4-22 5 17zm-38 122l1-5 9 2-1 7-9-2zm-99 61h2l3 10-8 11-12-9 7-9zm58-113l-13-10-2-8 11 3 2 2zm-52-18l-1-6 13-2v12l-11 1-1-3zm97-40v2l-3 1-1 5-2 2-7-1 3-15 10 2v3zm-55-71l-3 3-11-13 8-5 2 1 5 9 1 4zm-26 11l-8-5 14-9 9 10-6 4-1-1-3 4-4-2zm91-6l-7 9-9-6 2-3-1-1 6-7 10 7zm-16-54l-1 5-11-9 10-13 12 9-7 9-2-1zm117 90l2-8-5-5v-4l2-2h2l13 9-10 18v-4zm57-88l-2 2-16-11 10-14 14 9v6l-5 7zm-17-36l-4 9 4 2-1 1-14 6v-2l-5-3 15-18 5 4zm31-17l-9 8-4-2-3-11 1-5-2-2-10-2-5-6h-2l16-22 6-5 11 19-1 13 3 5 6 3zm54 48v-16l2-4 25 17-9 3-12 7-5-7zM156 349v4l-11-1 2-6h7l3 1-1 1zm-2-31v2l-10-1-3-1-3-3v-2l14 2 2 2zm31 47h-7l-3-2v-2h9zm53-135v-4l-6-1 1-6 6 1 2 4h3l-1 3 6 1 1 4h-4l-1 8-11-2 3-6zm108-39l3 2-11 7-4 1-4-3 3-3-3-2 7-9 7 5zm-90-25l2-1 8 8-5 4 1 1-6 8-8-6-2 2 4-10z"/>
      <path d="M337 49l1-1 12 10 6 1 4 4-19 12-2-1-10-18 7-7zM170 351l2-2 16 3-1 6-1 1-17-3 1-1-2-4zm-61 29l2-10 7-1 2 2 5 1 8 6 1-1-2 15-4 2-1-6-9-1v-4l2-2-1-1h-7zm53 24l3-2 7 1-2 9-9-1v-7zm18 19l2-8 13 2-2 9-13-2zm43-145v2l-19-2 2-12 5 1 10 8zM89 399l-5-5 10-9 1 1 2-2-3 5 15-4-9 14-1 5-8-3zm1-30h2l-6 6-11-10-1-3 9-1 6 8z"/>
      <path d="M92 369h-2l-7-8 14-2 2 1 3 4-5 5-3 1zm-12-90l-2 17 4 2-3 6-4-2-3-6-4-15v-2l2-1 8 1zm78 46h-5l1-9 15 2-1 1 2 1-2 4-9 1zm89-46l-13 8h-4l-4-5 17-13 6 8-1 1zm62-30l1 3 10-2 9 6-8 21-8 14-7-4-3-6 10-8-7-13h-4l-4-7 4-6 6-1 1 2zM76 142v2l2 1-4 4 3 5-3 2 1 1-3 3 6 3-13 7v-14l-4-7 10-8-1-2 3-3 3 3v2zm86-15l-9 11-9-7 7-12h2l9 7zm215 18l12 10 8-2 4 5-19 20-2-1v-3l4-4v-4l-5-6-6-4-1-3v-5l4-5zm-191-14l2-2 15 11-3 12-9-1-6-10 1-7zm90 83l14 9-7 10-14-8 7-10zm35-48l-10 14-13-9 11-16 13 10zm8 24l-2 3-11 2-10-7v-2l7-8z"/>
      <path d="M399 160l2-2 13 15-19 15-4 2-6-3-8 5-1-3 2-9h2l17-17z"/>
      <path d="M431 153l-1 1 2 4-10 10h-2l-6 5-13-15 7-5 13-4 9-8 6-2 1 9-4 4h-2zM168 363l-9-1v-2l1-2h6l3 1-1 3zm-5 32l-9-2 1-7 9 2-1 4zm180-256h4v3l-4 8-15-12 7-12-2-1 6-8 5 7-2 6-3-2 1 5-2 2 3 2zm-14 39l8 6-7 9 3 2-3 3-11-8 9-11z"/>
      <path d="M319 190l-6-4 5-7-4-3 5-6 10 8zM28 304l-6-7 25-18 4 9-5 3 1 4-11 9v-7l-2-4-5 3 2 5-3 2zm159 30h6l-2 12-3-2-5 1-11-3 2-10 12 2zM76 102l-3-3 10-13 38 28-8 9-9-8-12-6-6-5-4-2zm153 72l-1 2h-7l3-19 6 4-1 12zm-29 0v-2h2l10 3v14l-13-2-1-2 2-9zm0-2l-4 23h-4l-2-1 1-3-3-6 2-3v-5l-2-4 2-3 7 2v-2l2 2zm130 6l3-5 6 2 5-1 3-3h2l6 6h4l-3 3-14 7-11-8zm60-124l-17 17-7-4 4-11 16-29 12 10 2 5v2l-7 7zM161 433l-1 3-4 1-14-2-1 5 15 3-3 12-24 5-3-7v-10l2-3 3-17 5 3 17 2 8 3zm86-113l-12 7-5-8 4-5-3-1-3 2 6-7 3-9 4 3 2 5 47-32 19 20-13 10-32 8-11 5z"/>
      <path d="M251 302h-2l-2-3 3-2-4-7 8-5 7 10zm-145-52l8 4-2 2-16 4 1-7z"/>
    </g>
  </g>
</svg>
