---
# Front matter comment to ensure Jekyll properly reads file.
---
<svg viewBox="0 0 83 79" xmlns="http://www.w3.org/2000/svg" xmlns:xlink="http://www.w3.org/1999/xlink">
  <defs>
    <path d="M45.93 73.88l-13.306 9.26a5 5 0 0 1-7.642-5.553l4.695-15.516a8 8 0 0 0-2.824-8.692l-12.919-9.794a5 5 0 0 1 2.919-8.983l16.208-.33a8 8 0 0 0 7.394-5.372l5.322-15.313a5 5 0 0 1 9.446 0L60.545 28.9a8 8 0 0 0 7.394 5.371l16.208.33a5 5 0 0 1 2.919 8.984l-12.919 9.794a8 8 0 0 0-2.824 8.692l4.695 15.516a5 5 0 0 1-7.642 5.552L55.07 73.88a8 8 0 0 0-9.138 0z" id="a"/>
  </defs>
  <g transform="translate(-9 -8)" fill="none" fill-rule="evenodd">
    <mask id="b" fill="#fff">
      <use xlink:href="#a"/>
    </mask>
    <use fill="#FEE69C" xlink:href="#a"/>
    <path stroke="#DCB050" stroke-width="2" d="M46.502 74.7l-13.307 9.26a6 6 0 0 1-9.17-6.662L28.72 61.78a7 7 0 0 0-2.47-7.605l-12.92-9.793a6 6 0 0 1 3.503-10.78l16.208-.33a7 7 0 0 0 6.469-4.7l5.323-15.313a6 6 0 0 1 11.334 0L61.49 28.57a7 7 0 0 0 6.47 4.7l16.207.33a6 6 0 0 1 3.503 10.78l-12.918 9.795a7 7 0 0 0-2.471 7.605l4.694 15.517a6 6 0 0 1-9.17 6.662L54.498 74.7a7 7 0 0 0-7.996 0z"/>
    <path d="M74.989 69.86c-2.528.632-4.049 2.409-4.797 5.02-.43 1.503-.54 2.828-.54 4.721 0 .28.004.335.082 1.24.154 1.77.12 2.98-.263 4.53-.523 2.119-.844 1.982-.331-.081.372-1.504.403-2.682.253-4.418-.079-.923-.082-.977-.082-1.271 0-1.92.109-3.27.553-4.817.78-2.717 2.381-4.592 5.043-5.259 4.647-1.161 4.807-.847.082.335zm6.334-36.622c.024.563.56.72 2.32.813.55.03.735.04 1.018.068 1.008.082 1.74.25 2.327.574 2.556 1.418 3.974 2.48 4.766 3.956 1.128 2.102.274 4.401-3.037 6.923-2.829 2.152-3.793 3.543-3.864 5.11-.02.4 0 .66.089 1.514.235 2.21.085 3.639-.957 5.952a15.112 15.112 0 0 1-1.421 2.573c-.964 1.356-1.87 1.96-3.622 2.627-.147.055-1.141.42-1.459.543-.615.233-1.155.465-1.712.732-1.428.683-2.87 1.571-4.475 2.815-2.884 2.224-4.52 4.974-5.46 8.562-.376 1.435-.53 2.327-.957 5.197-.43 2.938-.762 2.852-.335-.048.424-2.884.581-3.783.96-5.235.957-3.655 2.635-6.47 5.58-8.746a25.003 25.003 0 0 1 4.54-2.853 23.046 23.046 0 0 1 1.736-.745c.321-.123 1.319-.488 1.462-.543 1.692-.642 2.542-1.213 3.465-2.504.461-.65.916-1.47 1.387-2.518 1.015-2.249 1.158-3.619.93-5.775a9.27 9.27 0 0 1-.093-1.564c.075-1.688 1.097-3.157 3.998-5.364 3.187-2.43 3.983-4.558 2.945-6.492-.752-1.397-2.136-2.433-4.63-3.816-.536-.301-1.23-.455-2.193-.537-.274-.024-.458-.034-1.008-.065-1.972-.102-2.607-.29-2.638-1.14-.034-.96.311-.838.338-.014zM13 53.5c-1.35.54 10.402-7.105 14.054-8.564 1.367-.547 3.007-1.056 5.381-1.695.072-.02 5.08-1.332 6.567-1.752 6.799-1.917 11.042-3.865 13.615-6.758 1.968-2.214 3.393-4.79 5.87-10.127l.714-1.538c3.03-6.515 4.933-9.723 7.78-12.265m-22.27 4.568c0 6.532-.25 8.586-1.77 11.343a15.484 15.484 0 0 1-1.688 2.432c-2.21 2.655-4.035 5.535-4.36 7.268-.41 2.166 1.603 2.401 6.892-.017 4.548-2.078 7.653-5.108 9.737-8.993a27.507 27.507 0 0 0 2.085-5.17c.307-1.017 1.083-3.98 1.165-4.263.15-.567.35-1.12.598-1.65 2.552-5.101 2.825-4.886.307.15a9.625 9.625 0 0 0-.577 1.595c-.079.274-.855 3.243-1.162 4.271a27.839 27.839 0 0 1-2.115 5.228c-2.118 3.95-5.275 7.031-9.894 9.142-5.501 2.515-7.859 2.238-7.373-.355.341-1.807 2.186-4.725 4.438-7.424a15.146 15.146 0 0 0 1.647-2.378c1.486-2.692 1.728-4.705 1.728-11.18 0-6.505.342-6.634.342 0zm2.73-7.9c2.378 9.516 1.23 15.556-2.76 21.32-1.357 1.965-1.203 3.143.02 3.065 1.414-.096 3.488-1.691 5.162-4.278 1.06-1.64 1.743-3.57 2.75-7.356l.578-2.17a79.16 79.16 0 0 1 .625-2.22c1.685-5.658 1.996-5.49.325.099-.198.67-.393 1.367-.622 2.21l-.577 2.17c-1.019 3.82-1.709 5.774-2.792 7.452-1.725 2.668-3.884 4.332-5.429 4.434-1.606.106-1.81-1.445-.32-3.597 3.935-5.685 5.062-11.627 2.705-21.047-1.486-5.951-1.182-6.143.335-.082zM27.36 60.5c3.397-2.426 7.312-4.223 12.02-5.323 12.652-2.952 17.425-4.34 20.1-6.126 2.938-1.958 7.277-8.463 12.587-18.727 1.783-3.45 2.063-3.249.3.157-5.333 10.319-9.69 16.851-12.696 18.857-2.726 1.817-7.506 3.208-20.216 6.173-4.663 1.087-8.534 2.867-11.896 5.269-2.467 1.763-2.693 1.5-.199-.28zm14.483 17.903a34.36 34.36 0 0 0-6.47 2.152c-1.767.81-5.846 3.328-5.638 3.212-2.296 1.243-4.431 1.418-8.473.444-10.096-2.44-10.397-2.945-5.214-9.16 5.959-7.15 16.1-15.778 19.263-15.778 3.39 0 18.395-4.093 22.474-6.133 3.232-1.616 8.31-7.236 12.58-12.932.243-.324 4.613-7.38 6.56-10.113 3.195-4.486 3.448-4.25.28.195-1.94 2.723-6.31 9.785-6.566 10.123-4.305 5.74-9.403 11.385-12.703 13.035-4.12 2.06-19.181 6.167-22.625 6.167-3.014 0-13.116 8.593-19.003 15.655-4.989 5.986-4.848 6.221 5.036 8.61 3.963.956 6.013.785 8.23-.41-.229.12 3.865-2.402 5.658-3.226 1.849-.847 3.964-1.568 6.53-2.176 6.535-1.548 6.491-1.186.081.335zM25.745 53.238c1.613-1.076 3.065-1.804 4.398-2.159 4.366-1.165 5.33-1.428 7.438-2.04 4.287-1.243 7.502-2.357 9.614-3.416a15.48 15.48 0 0 1 2.552-.953c2.959-.91 4.107-1.401 5.798-2.768 2.317-1.865 4.466-4.869 6.604-9.522 5.457-11.88 5.747-11.695.308.137-2.156 4.7-4.34 7.749-6.697 9.652-1.735 1.4-2.914 1.903-5.91 2.825-.86.237-1.699.55-2.505.933-2.132 1.066-5.364 2.186-9.669 3.437a296.356 296.356 0 0 1-7.448 2.04c-1.288.345-2.71 1.059-4.291 2.115-1.542 1.057-1.545.625-.192-.28zm11.45-33.424c0 2.842-.226 4.424-1.258 6.481-1.428 2.856-4.202 5.514-8.74 8.019-8.353 4.609-13.266 9.413-18.05 16.345m25.085 12.04c1.268-.448 2.973-.922 5.501-1.555.881-.222 5.648-1.38 7.025-1.725 6.693-1.684 10.779-3.04 13.061-4.561 5.101-3.4 12.597-11.576 14.975-16.332.769-1.537 1.589-2.18 2.624-2.135.43.02.892.154 1.476.41.41.178.814.372 1.21.58l.43.216c1.633.8 2.863 1.175 4.322 1.175 2.46 0 3.42 1.05 2.853 2.703-.478 1.387-2.023 3.044-3.792 4.107-2.836 1.701-4.015 5.91-4.015 11.47 0 1.226-.468 2.145-1.36 2.856-.676.54-1.435.888-2.894 1.42l-.348.127c-1.657.598-2.385.947-2.966 1.524-1.739 1.743-4.284 2.443-6.953 2.443-.471 0-.843.314-1.363 1.06-.099.14-.45.665-.502.744-.916 1.34-1.684 1.954-2.918 1.954-2.678 0-3.67.318-7.434 2.371-1.77.964-3.007 1.224-5.01 1.258-.088 0-.16 0-.313.007-1.647.02-2.433.102-3.591.457a25.088 25.088 0 0 0-3.038 1.217 437.07 437.07 0 0 0-3.495 1.664c-2.661 1.264-4.55 2.043-6.457 2.586-4.24 1.213-6.348.765-9.369-1.39-.881-.633-.929-1.514-.283-2.604.495-.837 1.332-1.74 2.76-3.065l.609-.56c1.339-1.23 1.53-1.404 2.015-1.89.793-.792 1.066-1.195 1.873-2.606.66-1.148 1.151-1.746 2.142-2.412.786-.527 1.824-1.019 3.225-1.514zm5.867 1.698c.71 0 1.366-.068 2.477-.236 1.783-.263 2.268-.307 2.89-.17.861.19 1.295.802 1.295 1.944 0 1.383-.776 2.49-2.262 3.454-1.107.717-2.23 1.206-4.834 2.186l-.093.035-.779.293c-1.038.397-1.8.861-3.187 1.856l-.274.194c-2.798 2.01-4.56 2.744-7.875 2.744-1.701 0-2.35-.694-1.964-1.92.297-.96 1.223-2.242 2.665-3.803.43-.468.901-.957 1.417-1.47 1.083-1.072 3.844-3.624 3.912-3.69a4.99 4.99 0 0 1 .479-.43c1.155-.925 1.971-1.052 4.845-1 .563.01.898.013 1.288.013zm38.426-15.15c-.642 1.86-.676 2.31-.335 4.36.404 2.413-.471 5.665-1.875 5.665-.173 0-.345.008-.516.024l-.219.014c-.977.061-1.65.058-2.371-.058-2.238-.363-3.557-1.757-3.557-4.592 0-4.75.731-6.728 2.778-8.996.33-.396.619-.826.86-1.281.203-.352.95-1.753.93-1.712 1.517-2.781 2.634-3.94 4.186-3.553.4.102.751.263 1.223.543l.475.287c.336.213.69.395 1.059.546.239.093.615.11 1.623.09l.246-.004c1.08-.017 1.633.027 1.992.225.55.304.41.875-.39 1.674a72.67 72.67 0 0 1-1.319 1.285c-3.621 3.45-4.356 4.237-4.79 5.484z" stroke="#E2B856" stroke-width=".5" mask="url(#b)"/>
    <path d="M45.93 62.28l-1.749 1.217a2.676 2.676 0 0 1-4.09-2.971l.618-2.04a8 8 0 0 0-2.824-8.692l-1.698-1.287a2.676 2.676 0 0 1 1.562-4.808l2.13-.043a8 8 0 0 0 7.394-5.372l.7-2.013a2.676 2.676 0 0 1 5.054 0l.7 2.013a8 8 0 0 0 7.394 5.372l2.13.043a2.676 2.676 0 0 1 1.562 4.808l-1.698 1.287a8 8 0 0 0-2.824 8.692l.617 2.04a2.676 2.676 0 0 1-4.09 2.97L55.07 62.28a8 8 0 0 0-9.138 0z" stroke="#3D90C4" stroke-width="2" fill="#45A4DE" mask="url(#b)"/>
  </g>
</svg>
